<svg xmlns="http://www.w3.org/2000/svg" class="sheet" viewBox="0 0 470 470" role="img"
preserveAspectRatio="xMidYMid meet"><title>the outer corner fillet in the notch between two perpendicular flange faces</title><style>
.fbody   { fill:rgba(16,22,25,.14); stroke:#101619; stroke-width:1.3; }
.fquad   { fill:rgba(122,94,168,.22); stroke:#7a5ea8; stroke-width:1.6; }
.fplate  { fill:rgba(16,22,25,.10); stroke:#101619; stroke-width:1; }
.fstand  { fill:rgba(11,110,128,.16); stroke:#0b6e80; stroke-width:1; }
.zoom    { fill:none; stroke:#b8372a; stroke-width:1.6; stroke-dasharray:5 3; }
.fsliver { fill:#b8372a; stroke:#b8372a; stroke-width:.8; }
.tool    { fill:none; stroke:#0b6e80; stroke-width:1.1; stroke-dasharray:7 4; }
.relief  { fill:rgba(11,110,128,.10); stroke:#0b6e80; stroke-width:1.2; }
.ring    { fill:none; stroke:#1c7a54; stroke-width:1.6; }
.rule    { stroke:#9fb0ba; stroke-width:1; stroke-dasharray:3 4; }
.ray     { stroke:#b8372a; stroke-width:1.8; }
.edge    { stroke:#0b6e80; stroke-width:1.8; }
.axis    { stroke:#9fb0ba; stroke-width:1; }
.bar     { fill:rgba(122,94,168,.55); stroke:#7a5ea8; stroke-width:.8; }
.barbad  { fill:rgba(184,55,42,.65); stroke:#b8372a; stroke-width:.8; }
.band    { fill:rgba(184,55,42,.10); stroke:none; }
text.lbl   { font-family:monospace; font-size:10px; fill:#5d6f79; }
text.plbl  { font-family:monospace; font-size:10px; fill:#0b6e80; font-weight:600; }
text.nclbl { font-family:monospace; font-size:10px; fill:#7a5ea8; font-weight:600; }
text.gclbl { font-family:monospace; font-size:10px; fill:#b8372a; font-weight:600; }
text.xlbl  { font-family:monospace; font-size:10px; fill:#1c7a54; font-weight:600; }
text.ttl   { font-family:monospace; font-size:11px; fill:#5d6f79; font-weight:600; }
.dim line  { stroke:#b8372a; stroke-width:1.1; }
.dim text  { font-family:monospace; font-size:10px; fill:#b8372a; font-weight:600; }
.faint line { stroke:#5d6f79; stroke-width:1; }
.faint text { fill:#5d6f79; font-weight:400; }
@media (prefers-color-scheme: dark) {
  .fbody   { fill:rgba(220,230,234,.13); stroke:#dce6ea; }
  .fquad   { fill:rgba(179,154,224,.24); stroke:#b39ae0; }
  .fplate  { fill:rgba(220,230,234,.10); stroke:#dce6ea; }
  .fstand  { fill:rgba(69,194,214,.16); stroke:#45c2d6; }
  .zoom    { stroke:#ff6f5e; }
  .fsliver { fill:#ff6f5e; stroke:#ff6f5e; }
  .tool, .relief { stroke:#45c2d6; }
  .relief  { fill:rgba(69,194,214,.12); }
  .ring    { stroke:#4fd39b; }
  .rule, .axis { stroke:#5b6f79; }
  .ray     { stroke:#ff6f5e; }
  .edge    { stroke:#45c2d6; }
  .bar     { fill:rgba(179,154,224,.55); stroke:#b39ae0; }
  .barbad  { fill:rgba(255,111,94,.65); stroke:#ff6f5e; }
  .band    { fill:rgba(255,111,94,.12); }
  text.lbl { fill:#8ea3ad; } text.plbl { fill:#45c2d6; } text.nclbl { fill:#b39ae0; }
  text.gclbl { fill:#ff6f5e; } text.xlbl { fill:#4fd39b; } text.ttl { fill:#8ea3ad; }
  .dim line { stroke:#ff6f5e; } .dim text { fill:#ff6f5e; }
  .faint line { stroke:#8ea3ad; } .faint text { fill:#8ea3ad; }
}
</style><defs><clipPath id="oc"><rect x="0" y="0" width="470" height="470"/></clipPath></defs><g clip-path="url(#oc)"><style>
.focf  { fill:rgba(28,122,84,.30); stroke:#1c7a54; stroke-width:1.4; }
.fgtw  { fill:rgba(184,55,42,.45); stroke:#b8372a; stroke-width:1.4; }
.fwtb  { fill:rgba(168,106,31,.30); stroke:#a86a1f; stroke-width:1.4; }
@media (prefers-color-scheme: dark) {
  .focf { fill:rgba(79,211,155,.30); stroke:#4fd39b; }
  .fgtw { fill:rgba(255,111,94,.45); stroke:#ff6f5e; }
  .fwtb { fill:rgba(224,169,74,.30); stroke:#e0a94a; }
}
</style><path class="fbody" fill-rule="evenodd" d="M142.4417 1009.4500 L470.7087 681.1829 L457.0825 664.6882 L446.8133 645.9162 L440.2744 625.5439 L437.6968 604.3044 L439.1758 582.9585 L444.6573 562.2767 L453.9435 543.0011 L466.7025 525.8256 L482.4737 511.3675 L500.6899 500.1453 L520.6966 492.5637 L541.7757 488.8951 L550.4968 488.5575 L550.4968 411.0281 L522.7631 413.0591 L495.6206 419.1076 L469.6512 429.0485 L445.4052 442.6635 L415.7560 466.9170 L415.8866 521.6067 L381.2838 556.2096 L336.0127 510.9385 L336.0127 102.9524 L-1687.5984 102.9524 L-1687.5984 170.0952 L155.1000 170.0952 L176.3097 172.1244 L196.7510 178.1356 L215.6834 187.9123 L232.4187 201.1022 L246.3490 217.2221 L256.9744 235.6919 L263.9050 255.8404 L267.0048 282.0000 L267.0048 717.3860 L264.9756 738.5957 L258.9644 759.0369 L249.1877 777.9694 L235.9978 794.7047 L219.8779 808.6369 L201.4081 819.2604 L181.2596 826.1910 L160.1618 829.1770 L138.8831 828.1102 L137.6932 827.9292 L107.6561 825.2547 L77.5313 826.6442 L47.8691 832.0697 L19.2029 841.4343 L-7.9415 854.5663 L-33.0753 871.2289 L-55.7416 891.1200 L-75.5283 913.8758 L-92.0752 939.0861 L-105.0842 966.2920 L-114.3163 994.9993 L-119.6057 1024.6877 L-120.8571 1054.8180 L-118.0446 1084.8421 L-111.2240 1114.2152 L-100.5147 1142.4059 L-86.1144 1168.9012 L-68.2824 1193.2181 L-55.3798 1207.2715 L63.3138 1088.5778 L54.2029 1076.6077 L48.6096 1062.6420 L46.9403 1047.6915 L49.3146 1032.8362 L55.5607 1019.1502 L65.2274 1007.6240 L77.6153 999.0894 L91.8309 994.1638 L106.8429 993.2014 L121.5696 996.2750 L134.9441 1003.1609 L138.8309 1006.1413 L142.4417 1009.4500 Z"/>
<path class="focf" d="M267.0048 170.0952 L155.1000 170.0952 L176.3097 172.1244 L196.7510 178.1356 L215.6834 187.9123 L232.4187 201.1022 L246.3490 217.2221 L256.9744 235.6919 L263.9050 255.8404 L267.0048 282.0000 L267.0048 170.0952 Z"/>
<line class="edge" x1="267.005" y1="416.286" x2="267.005" y2="80.571"/>
<line class="edge" x1="9.624" y1="170.095" x2="356.529" y2="170.095"/>
<circle cx="155.100" cy="282.000" r="3.0" fill="#7a5ea8"/>
<g class="dim"><line x1="155.10" y1="343.55" x2="267.00" y2="343.55"/><line x1="155.10" y1="339.55" x2="155.10" y2="347.55"/><line x1="267.00" y1="339.55" x2="267.00" y2="347.55"/><text x="211.05" y="334.55" text-anchor="middle">r 6.0</text></g>
<g class="dim"><line x1="93.55" y1="282.00" x2="93.55" y2="170.10"/><line x1="89.55" y1="282.00" x2="97.55" y2="282.00"/><line x1="89.55" y1="170.10" x2="97.55" y2="170.10"/><text x="63.55" y="230.05">r 6.0</text></g>
<text class="plbl" x="18.80" y="164.10" text-anchor="start">flange_y 23.12</text>
<text class="plbl" x="261.00" y="428.29" text-anchor="end">flange_inner_x -15.20</text>
<text class="nclbl" x="148.10" y="296.00" text-anchor="end">center (-21.20, 17.12)</text>
<text class="xlbl" x="233.43" y="164.10" text-anchor="end">the fillet</text>
<text class="ttl" x="8" y="14">detail 1 &#8212; the outer corner fillet, U=3.0 end_bolt 1/8in</text>
<text class="lbl" x="8" y="28">two faces at right angles: each coordinate is one face minus the radius</text>
<text class="lbl" x="8" y="462">it fills a real notch &#8212; 0.75 to 163.9 mm&#179; no other body supplies</text></g></svg>
