<svg xmlns="http://www.w3.org/2000/svg" class="sheet" viewBox="0 0 430 430" role="img"
preserveAspectRatio="xMidYMid meet"><title>Case 2 view 2 — the junction as built</title><style>
.fbody   { fill:rgba(16,22,25,.14); stroke:#101619; stroke-width:1.3; }
.fcorner { fill:rgba(122,94,168,.22); stroke:#7a5ea8; stroke-width:1.3; }
.fpanel  { fill:rgba(28,122,84,.14); stroke:#1c7a54; stroke-width:1.2; }
.tool    { fill:none; stroke:#0b6e80; stroke-width:1.1; stroke-dasharray:7 4; }
.oml     { fill:none; stroke:#1c7a54; stroke-width:2; }
.nominal { stroke:#9fb0ba; stroke-width:1.1; stroke-dasharray:9 3 2 3; }
.rule    { stroke:#9fb0ba; stroke-width:1; stroke-dasharray:3 4; }
.rule2   { stroke:#7a5ea8; stroke-width:1.2; stroke-dasharray:3 4; }
.toolrule{ stroke:#0b6e80; stroke-width:1.4; stroke-dasharray:2 3; }
.wasline { fill:none; stroke:#b8372a; stroke-width:1.8; stroke-dasharray:6 3; }
.xarc    { fill:#1c7a54; stroke:none; }
.gclr    { fill:none; stroke:#b8372a; stroke-width:2.2; }
.diagline{ stroke:#7a5ea8; stroke-width:2.4; opacity:.75; }
text.gclbl { font-family:monospace; font-size:10px; fill:#b8372a; font-weight:600; }
text.nclbl { font-family:monospace; font-size:10px; fill:#7a5ea8; font-weight:600; }
text.plbl  { font-family:monospace; font-size:10px; fill:#0b6e80; font-weight:600; }
text.lbl   { font-family:monospace; font-size:10px; fill:#5d6f79; }
text.xlbl  { font-family:monospace; font-size:10px; fill:#1c7a54; font-weight:600; }
.dim line  { stroke:#b8372a; stroke-width:1.1; }
.dim text  { font-family:monospace; font-size:10px; fill:#b8372a; font-weight:600; }
.faint line { stroke:#5d6f79; stroke-width:1; }
.faint text { fill:#5d6f79; font-weight:400; }
@media (prefers-color-scheme: dark) {
  .fbody   { fill:rgba(220,230,234,.13); stroke:#dce6ea; }
  .fcorner { fill:rgba(179,154,224,.24); stroke:#b39ae0; }
  .fpanel  { fill:rgba(79,211,155,.14); stroke:#4fd39b; }
  .tool, .toolrule { stroke:#45c2d6; }
  .oml { stroke:#4fd39b; } .xarc { fill:#4fd39b; }
  .nominal, .rule { stroke:#5b6f79; }
  .rule2, .diagline { stroke:#b39ae0; }
  .wasline, .gclr { stroke:#ff6f5e; }
  text.gclbl { fill:#ff6f5e; } text.nclbl { fill:#b39ae0; }
  text.plbl { fill:#45c2d6; } text.lbl { fill:#8ea3ad; } text.xlbl { fill:#4fd39b; }
  .dim line { stroke:#ff6f5e; } .dim text { fill:#ff6f5e; }
  .faint line { stroke:#8ea3ad; } .faint text { fill:#8ea3ad; }
}
</style><defs><clipPath id="jb2"><rect x="0" y="0" width="430" height="430"/></clipPath></defs><g clip-path="url(#jb2)"><path class="fcorner" fill-rule="evenodd" d="M104.809 1480.210 L477.839 1853.239 L567.909 1763.169 L566.477 1418.088 L599.173 1386.826 L633.367 1357.211 L668.978 1329.315 L705.918 1303.205 L744.099 1278.946 L783.427 1256.595 L823.808 1236.206 L865.143 1217.829 L907.333 1201.510 L950.275 1187.286 L993.864 1175.193 L1037.996 1165.260 L1082.564 1157.511 L1127.458 1151.965 L1172.572 1148.636 L1217.794 1147.530 L1263.016 1148.652 L1308.129 1151.998 L1353.021 1157.560 L1397.586 1165.325 L1441.714 1175.274 L1485.300 1187.383 L1528.236 1201.622 L1570.420 1217.957 L1611.748 1236.349 L1652.122 1256.752 L1691.442 1279.117 L1729.614 1303.391 L1766.545 1329.514 L1802.145 1357.423 L1836.329 1387.050 L1869.013 1418.324 L1900.119 1451.168 L1929.570 1485.504 L1957.296 1521.247 L1983.228 1558.311 L2007.306 1596.608 L2029.469 1636.042 L2049.664 1676.520 L2067.843 1717.942 L2083.961 1760.209 L2097.980 1803.219 L2109.864 1846.865 L2119.587 1891.044 L2127.122 1935.648 L2132.454 1980.569 L2135.568 2025.698 L2136.458 2070.925 L2135.120 2116.141 L2131.559 2161.237 L2125.782 2206.103 L2117.804 2250.630 L2107.645 2294.710 L2095.328 2338.237 L2080.884 2381.105 L2064.348 2423.210 L2045.759 2464.451 L2025.164 2504.726 L2002.611 2543.939 L1978.155 2581.995 L1951.856 2618.800 L1923.778 2654.267 L1893.987 2688.309 L1866.022 2717.412 L1534.056 2702.864 L1430.760 2806.160 L1803.789 3179.190 L3259.497 3179.190 L3259.497 2066.371 L3258.383 1998.943 L3255.044 1931.588 L3249.481 1864.380 L3241.703 1797.392 L3231.716 1730.699 L3219.533 1664.370 L3205.166 1598.481 L3188.631 1533.102 L3169.946 1468.304 L3149.131 1404.160 L3126.209 1340.737 L3101.206 1278.106 L3074.148 1216.334 L3045.064 1155.490 L3013.988 1095.640 L2980.952 1036.848 L2945.992 979.180 L2909.147 922.697 L2870.457 867.462 L2829.964 813.534 L2787.713 760.974 L2743.748 709.837 L2698.119 660.180 L2650.875 612.057 L2602.068 565.520 L2551.750 520.620 L2499.977 477.407 L2446.806 435.927 L2392.293 396.225 L2336.500 358.345 L2279.485 322.328 L2221.313 288.213 L2162.045 256.039 L2101.748 225.839 L2040.486 197.646 L1978.326 171.492 L1915.337 147.405 L1851.587 125.412 L1787.145 105.535 L1722.082 87.797 L1656.468 72.218 L1590.376 58.814 L1523.878 47.599 L1457.045 38.587 L1389.951 31.787 L1322.669 27.206 L1255.273 24.850 L1219.380 24.503 L1217.628 24.502 L104.809 24.502 L104.809 1480.210 Z"/>
<path class="wasline" d="M94.600 1484.439 L470.620 1860.459 L567.909 1763.169 L566.477 1418.088 L599.173 1386.826 L633.367 1357.211 L668.978 1329.315 L705.918 1303.205 L744.099 1278.946 L783.427 1256.595 L823.808 1236.206 L865.143 1217.829 L907.333 1201.510 L950.275 1187.286 L993.864 1175.193 L1037.996 1165.260 L1082.564 1157.511 L1127.458 1151.965 L1172.572 1148.636 L1217.794 1147.530 L1263.016 1148.652 L1308.129 1151.998 L1353.021 1157.560 L1397.586 1165.325 L1441.714 1175.274 L1485.300 1187.383 L1528.236 1201.622 L1570.420 1217.957 L1611.748 1236.349 L1652.122 1256.752 L1691.442 1279.117 L1729.614 1303.391 L1766.545 1329.514 L1802.145 1357.423 L1836.329 1387.050 L1869.013 1418.324 L1900.119 1451.168 L1929.570 1485.504 L1957.296 1521.247 L1983.228 1558.311 L2007.306 1596.608 L2029.469 1636.042 L2049.664 1676.520 L2067.843 1717.942 L2083.961 1760.209 L2097.980 1803.219 L2109.864 1846.865 L2119.587 1891.044 L2127.122 1935.648 L2132.454 1980.569 L2135.568 2025.698 L2136.458 2070.925 L2135.120 2116.141 L2131.559 2161.237 L2125.782 2206.103 L2117.804 2250.630 L2107.645 2294.710 L2095.328 2338.237 L2080.884 2381.105 L2064.348 2423.210 L2045.759 2464.451 L2025.164 2504.726 L2002.611 2543.939 L1978.155 2581.995 L1951.856 2618.800 L1923.778 2654.267 L1893.987 2688.309 L1866.022 2717.412 L1534.056 2702.864 L1423.541 2813.379 L1799.561 3189.399 L3259.497 3189.399 L3259.497 2066.371 L3258.383 1998.943 L3255.044 1931.588 L3249.481 1864.380 L3241.703 1797.392 L3231.716 1730.699 L3219.533 1664.370 L3205.166 1598.481 L3188.631 1533.102 L3169.946 1468.304 L3149.131 1404.160 L3126.209 1340.737 L3101.206 1278.106 L3074.148 1216.334 L3045.064 1155.490 L3013.988 1095.640 L2980.952 1036.848 L2945.992 979.180 L2909.147 922.697 L2870.457 867.462 L2829.964 813.534 L2787.713 760.974 L2743.748 709.837 L2698.119 660.180 L2650.875 612.057 L2602.068 565.520 L2551.750 520.620 L2499.977 477.407 L2446.806 435.927 L2392.293 396.225 L2336.500 358.345 L2279.485 322.328 L2221.313 288.213 L2162.045 256.039 L2101.748 225.839 L2040.486 197.646 L1978.326 171.492 L1915.337 147.405 L1851.587 125.412 L1787.145 105.535 L1722.082 87.797 L1656.468 72.218 L1590.376 58.814 L1523.878 47.599 L1457.045 38.587 L1389.951 31.787 L1322.669 27.206 L1255.273 24.850 L1219.380 24.503 L1217.628 24.502 L94.600 24.502 L94.600 1484.439 Z"/>
<path class="fbody" fill-rule="evenodd" d="M1217.628 1647.788 L1217.628 1157.740 L1172.658 1158.853 L1127.798 1162.191 L1083.158 1167.745 L1038.848 1175.501 L994.976 1185.442 L951.649 1197.541 L908.975 1211.769 L867.057 1228.092 L825.998 1246.470 L785.900 1266.858 L746.859 1289.205 L708.972 1313.456 L672.332 1339.554 L637.029 1367.432 L603.148 1397.024 L573.696 1425.307 L575.128 1770.388 L477.839 1867.678 L94.600 1484.439 L94.600 24.502 L-13994.296 24.502 L-13994.296 1484.439 L-14377.535 1867.678 L-14474.824 1770.388 L-14473.392 1425.307 L-14505.909 1394.223 L-14539.924 1364.786 L-14575.355 1337.069 L-14612.114 1311.140 L-14650.111 1287.061 L-14689.253 1264.893 L-14729.445 1244.689 L-14770.587 1226.499 L-14812.579 1210.368 L-14855.318 1196.334 L-14898.699 1184.433 L-14942.616 1174.694 L-14986.961 1167.140 L-15031.626 1161.790 L-15076.501 1158.657 L-15117.324 1157.740 L-15117.324 1647.788 L-15086.816 1648.901 L-15056.470 1652.235 L-15026.448 1657.772 L-14996.909 1665.482 L-14968.011 1675.325 L-14939.907 1687.247 L-14912.747 1701.186 L-14886.675 1717.068 L-14861.830 1734.807 L-14838.343 1754.311 L-14816.341 1775.474 L-14795.940 1798.184 L-14777.248 1822.321 L-14760.365 1847.756 L-14745.381 1874.354 L-14732.375 1901.974 L-14721.417 1930.467 L-14712.565 1959.684 L-14705.866 1989.468 L-14701.355 2019.662 L-14699.057 2050.103 L-14698.983 2080.632 L-14701.135 2111.084 L-14705.501 2141.298 L-14712.057 2171.114 L-14720.769 2200.373 L-14731.590 2228.919 L-14744.464 2256.601 L-14759.320 2283.270 L-14776.081 2308.786 L-14794.656 2333.013 L-14814.948 2355.821 L-14836.849 2377.089 L-14860.241 2396.705 L-14885.001 2414.564 L-14910.996 2430.570 L-14938.089 2444.640 L-14966.136 2456.697 L-14994.986 2466.678 L-15024.488 2474.530 L-15054.483 2480.211 L-15084.812 2483.690 L-15115.314 2484.950 L-15145.827 2483.983 L-15176.189 2480.795 L-15206.237 2475.402 L-15235.812 2467.834 L-15264.757 2458.130 L-15292.918 2446.343 L-15320.145 2432.534 L-15346.293 2416.778 L-15371.223 2399.158 L-15394.803 2379.768 L-15416.906 2358.710 L-15437.416 2336.098 L-15456.224 2312.051 L-15473.228 2286.697 L-15488.340 2260.171 L-15501.478 2232.615 L-15512.573 2204.174 L-15521.566 2175.000 L-15528.408 2145.249 L-15533.063 2115.077 L-15535.508 2084.647 L-15535.907 2066.371 L-16025.955 2066.371 L-16024.842 2111.341 L-16021.504 2156.202 L-16015.950 2200.841 L-16008.193 2245.151 L-15998.253 2289.023 L-15986.154 2332.350 L-15971.926 2375.024 L-15955.602 2416.942 L-15937.225 2458.001 L-15916.837 2498.100 L-15894.490 2537.140 L-15870.239 2575.027 L-15844.141 2611.667 L-15816.263 2646.971 L-15786.671 2680.851 L-15758.388 2710.303 L-15413.307 2708.871 L-15316.017 2806.160 L-15699.256 3189.399 L-17159.193 3189.399 L-17159.193 17278.295 L-15699.256 17278.295 L-15316.017 17661.534 L-15413.307 17758.823 L-15758.388 17757.391 L-15789.472 17789.908 L-15818.909 17823.924 L-15846.626 17859.354 L-15872.555 17896.113 L-15896.634 17934.110 L-15918.802 17973.253 L-15939.006 18013.444 L-15957.196 18054.586 L-15973.327 18096.578 L-15987.361 18139.317 L-15999.262 18182.699 L-16009.001 18226.616 L-16016.555 18270.961 L-16021.905 18315.625 L-16025.038 18360.500 L-16025.955 18401.323 L-15535.907 18401.323 L-15534.793 18370.815 L-15531.460 18340.469 L-15525.923 18310.447 L-15518.213 18280.908 L-15508.370 18252.010 L-15496.448 18223.906 L-15482.509 18196.746 L-15466.627 18170.674 L-15448.888 18145.829 L-15429.384 18122.343 L-15408.221 18100.340 L-15385.511 18079.939 L-15361.374 18061.247 L-15335.939 18044.364 L-15309.341 18029.380 L-15281.721 18016.374 L-15253.228 18005.416 L-15224.011 17996.564 L-15194.227 17989.865 L-15164.033 17985.354 L-15133.592 17983.056 L-15103.063 17982.983 L-15072.611 17985.135 L-15042.397 17989.500 L-15012.581 17996.057 L-14983.322 18004.769 L-14954.776 18015.590 L-14927.094 18028.463 L-14900.425 18043.319 L-14874.909 18060.080 L-14850.682 18078.656 L-14827.874 18098.948 L-14806.606 18120.848 L-14786.990 18144.240 L-14769.131 18169.000 L-14753.125 18194.995 L-14739.055 18222.089 L-14726.998 18250.135 L-14717.017 18278.986 L-14709.165 18308.487 L-14703.484 18338.482 L-14700.005 18368.811 L-14698.745 18399.314 L-14699.712 18429.827 L-14702.900 18460.188 L-14708.293 18490.236 L-14715.861 18519.812 L-14725.565 18548.757 L-14737.352 18576.917 L-14751.161 18604.144 L-14766.917 18630.292 L-14784.537 18655.223 L-14803.927 18678.802 L-14824.985 18700.905 L-14847.597 18721.416 L-14871.644 18740.223 L-14896.998 18757.228 L-14923.523 18772.339 L-14951.080 18785.478 L-14979.521 18796.573 L-15008.695 18805.565 L-15038.446 18812.407 L-15068.618 18817.063 L-15099.048 18819.507 L-15117.324 18819.906 L-15117.324 19309.955 L-15072.353 19308.841 L-15027.493 19305.503 L-14982.854 19299.949 L-14938.543 19292.193 L-14894.671 19282.253 L-14851.345 19270.154 L-14808.671 19255.925 L-14766.753 19239.602 L-14725.694 19221.224 L-14685.595 19200.837 L-14646.555 19178.490 L-14608.668 19154.238 L-14572.028 19128.141 L-14536.724 19100.262 L-14502.844 19070.670 L-14473.392 19042.387 L-14474.824 18697.306 L-14377.535 18600.017 L-13994.296 18983.256 L-13994.296 20443.192 L94.600 20443.192 L94.600 18983.256 L477.839 18600.017 L575.128 18697.306 L573.696 19042.387 L606.213 19073.471 L640.229 19102.908 L675.659 19130.625 L712.418 19156.554 L750.415 19180.633 L789.558 19202.801 L829.749 19223.005 L870.891 19241.195 L912.883 19257.327 L955.622 19271.360 L999.004 19283.261 L1042.921 19293.001 L1087.266 19300.554 L1131.930 19305.904 L1176.805 19309.037 L1217.628 19309.955 L1217.628 18819.906 L1187.120 18818.793 L1156.774 18815.459 L1126.752 18809.922 L1097.213 18802.212 L1068.315 18792.370 L1040.211 18780.447 L1013.051 18766.508 L986.979 18750.626 L962.134 18732.887 L938.648 18713.384 L916.645 18692.220 L896.244 18669.510 L877.552 18645.373 L860.669 18619.938 L845.685 18593.340 L832.679 18565.720 L821.721 18537.227 L812.869 18508.010 L806.170 18478.226 L801.659 18448.033 L799.361 18417.591 L799.288 18387.063 L801.440 18356.610 L805.805 18326.396 L812.362 18296.580 L821.074 18267.321 L831.895 18238.775 L844.768 18211.093 L859.624 18184.424 L876.385 18158.908 L894.961 18134.682 L915.253 18111.873 L937.153 18090.605 L960.545 18070.989 L985.305 18053.131 L1011.301 18037.124 L1038.394 18023.055 L1066.440 18010.997 L1095.291 18001.016 L1124.792 17993.165 L1154.787 17987.484 L1185.116 17984.004 L1215.619 17982.745 L1246.132 17983.711 L1276.493 17986.899 L1306.541 17992.292 L1336.117 17999.860 L1365.062 18009.564 L1393.223 18021.351 L1420.449 18035.160 L1446.597 18050.916 L1471.528 18068.536 L1495.107 18087.927 L1517.211 18108.984 L1537.721 18131.596 L1556.528 18155.643 L1573.533 18180.997 L1588.644 18207.523 L1601.783 18235.079 L1612.878 18263.520 L1621.870 18292.694 L1628.712 18322.446 L1633.368 18352.617 L1635.812 18383.047 L1636.211 18401.323 L2126.260 18401.323 L2125.146 18356.353 L2121.808 18311.493 L2116.254 18266.853 L2108.498 18222.543 L2098.558 18178.671 L2086.459 18135.344 L2072.230 18092.670 L2055.907 18050.752 L2037.529 18009.693 L2017.142 17969.595 L1994.795 17930.554 L1970.543 17892.667 L1944.446 17856.027 L1916.567 17820.724 L1886.975 17786.843 L1858.692 17757.391 L1513.611 17758.823 L1416.322 17661.534 L1799.561 17278.295 L3259.497 17278.295 L3259.497 3189.399 L1799.561 3189.399 L1416.322 2806.160 L1513.611 2708.871 L1858.692 2710.303 L1889.776 2677.786 L1919.213 2643.771 L1946.930 2608.340 L1972.859 2571.581 L1996.938 2533.584 L2019.106 2494.442 L2039.310 2454.250 L2057.500 2413.108 L2073.632 2371.116 L2087.665 2328.377 L2099.566 2284.996 L2109.306 2241.079 L2116.859 2196.733 L2122.209 2152.069 L2125.342 2107.194 L2126.260 2066.371 L1636.211 2066.371 L1635.098 2096.879 L1631.764 2127.225 L1626.227 2157.247 L1618.517 2186.786 L1608.675 2215.684 L1596.752 2243.788 L1582.813 2270.948 L1566.931 2297.020 L1549.192 2321.865 L1529.689 2345.352 L1508.525 2367.354 L1485.815 2387.755 L1461.678 2406.447 L1436.243 2423.330 L1409.645 2438.314 L1382.026 2451.320 L1353.532 2462.278 L1324.315 2471.130 L1294.531 2477.829 L1264.338 2482.340 L1233.896 2484.638 L1203.368 2484.712 L1172.915 2482.560 L1142.701 2478.194 L1112.885 2471.638 L1083.626 2462.926 L1055.080 2452.105 L1027.398 2439.231 L1000.729 2424.375 L975.213 2407.614 L950.987 2389.039 L928.178 2368.747 L906.910 2346.846 L887.294 2323.454 L869.436 2298.694 L853.429 2272.699 L839.360 2245.606 L827.302 2217.559 L817.321 2188.709 L809.470 2159.207 L803.789 2129.212 L800.309 2098.883 L799.050 2068.381 L800.016 2037.867 L803.204 2007.506 L808.597 1977.458 L816.165 1947.883 L825.869 1918.938 L837.656 1890.777 L851.465 1863.550 L867.221 1837.402 L884.841 1812.472 L904.232 1788.892 L925.289 1766.789 L947.901 1746.279 L971.948 1727.471 L997.302 1710.466 L1023.828 1695.355 L1051.384 1682.217 L1079.825 1671.122 L1108.999 1662.129 L1138.751 1655.287 L1168.922 1650.632 L1199.352 1648.187 L1217.628 1647.788 Z M-13772.592 17056.592 L-13793.112 17034.497 L-13811.946 17010.949 L-13828.991 16986.075 L-13844.154 16960.011 L-13857.353 16932.900 L-13868.515 16904.888 L-13877.579 16876.129 L-13884.497 16846.780 L-13889.231 16817.000 L-13891.754 16786.953 L-13892.053 16756.801 L-13890.127 16726.709 L-13885.985 16696.841 L-13879.651 16667.360 L-13871.159 16638.427 L-13860.554 16610.200 L-13847.897 16582.832 L-13833.254 16556.472 L-13816.706 16531.265 L-13798.343 16507.348 L-13778.265 16484.850 L-13756.582 16463.896 L-13733.412 16444.599 L-13708.882 16427.063 L-13683.124 16411.386 L-13656.280 16397.652 L-13628.495 16385.937 L-13599.922 16376.303 L-13570.715 16368.804 L-13541.036 16363.481 L-13511.044 16360.362 L-13480.904 16359.464 L-13450.779 16360.793 L-13420.835 16364.342 L-13391.235 16370.090 L-13362.139 16378.006 L-13333.707 16388.048 L-13306.093 16400.160 L-13279.448 16414.278 L-13253.917 16430.322 L-13229.640 16448.207 L-13206.749 16467.834 L-13185.369 16489.097 L-13165.615 16511.879 L-13147.597 16536.057 L-13131.412 16561.499 L-13117.148 16588.065 L-13104.883 16615.612 L-13094.685 16643.989 L-13086.608 16673.040 L-13080.696 16702.609 L-13076.983 16732.533 L-13075.488 16762.649 L-13076.219 16792.794 L-13079.172 16822.802 L-13084.331 16852.511 L-13091.669 16881.758 L-13101.145 16910.384 L-13112.707 16938.233 L-13126.292 16965.153 L-13141.827 16990.997 L-13159.227 17015.624 L-13178.396 17038.900 L-13199.230 17060.698 L-13221.617 17080.900 L-13245.432 17099.394 L-13270.547 17116.081 L-13296.826 17130.869 L-13324.124 17143.678 L-13352.292 17154.438 L-13381.178 17163.090 L-13410.623 17169.586 L-13440.468 17173.893 L-13470.549 17175.985 L-13500.702 17175.853 L-13530.763 17173.495 L-13560.568 17168.926 L-13589.955 17162.171 L-13618.764 17153.265 L-13646.836 17142.257 L-13674.020 17129.209 L-13700.167 17114.190 L-13725.135 17097.282 L-13748.787 17078.579 L-13772.592 17056.592 Z M-127.103 17056.592 L-149.198 17077.112 L-172.746 17095.945 L-197.620 17112.990 L-223.684 17128.153 L-250.795 17141.352 L-278.807 17152.514 L-307.565 17161.579 L-336.915 17168.497 L-366.695 17173.230 L-396.742 17175.754 L-426.894 17176.053 L-456.986 17174.126 L-486.854 17169.984 L-516.335 17163.650 L-545.268 17155.158 L-573.495 17144.554 L-600.863 17131.896 L-627.223 17117.253 L-652.430 17100.705 L-676.347 17082.342 L-698.845 17062.264 L-719.799 17040.582 L-739.096 17017.411 L-756.631 16992.881 L-772.309 16967.123 L-786.043 16940.279 L-797.758 16912.494 L-807.392 16883.921 L-814.891 16854.715 L-820.214 16825.035 L-823.333 16795.043 L-824.231 16764.903 L-822.902 16734.779 L-819.353 16704.835 L-813.605 16675.234 L-805.689 16646.138 L-795.647 16617.706 L-783.535 16590.092 L-769.417 16563.447 L-753.373 16537.917 L-735.488 16513.640 L-715.861 16490.748 L-694.598 16469.368 L-671.816 16449.614 L-647.638 16431.596 L-622.196 16415.411 L-595.629 16401.147 L-568.083 16388.882 L-539.706 16378.684 L-510.655 16370.607 L-481.086 16364.695 L-451.162 16360.982 L-421.046 16359.487 L-390.901 16360.218 L-360.893 16363.171 L-331.184 16368.331 L-301.937 16375.668 L-273.311 16385.144 L-245.462 16396.706 L-218.542 16410.292 L-192.698 16425.827 L-168.071 16443.226 L-144.795 16462.395 L-122.997 16483.230 L-102.795 16505.616 L-84.301 16529.431 L-67.614 16554.547 L-52.826 16580.825 L-40.017 16608.123 L-29.257 16636.291 L-20.605 16665.177 L-14.108 16694.622 L-9.802 16724.467 L-7.709 16754.548 L-7.842 16784.701 L-10.200 16814.762 L-14.769 16844.568 L-21.524 16873.955 L-30.430 16902.763 L-41.438 16930.836 L-54.486 16958.020 L-69.505 16984.167 L-86.413 17009.134 L-105.116 17032.786 L-127.103 17056.592 Z M-13772.592 3411.103 L-13750.498 3390.583 L-13726.949 3371.749 L-13702.076 3354.704 L-13676.012 3339.541 L-13648.900 3326.342 L-13620.889 3315.180 L-13592.130 3306.116 L-13562.781 3299.198 L-13533.001 3294.464 L-13502.953 3291.941 L-13472.801 3291.642 L-13442.709 3293.568 L-13412.842 3297.710 L-13383.361 3304.044 L-13354.428 3312.536 L-13326.200 3323.140 L-13298.832 3335.798 L-13272.473 3350.441 L-13247.266 3366.989 L-13223.348 3385.352 L-13200.851 3405.430 L-13179.897 3427.113 L-13160.599 3450.283 L-13143.064 3474.813 L-13127.387 3500.571 L-13113.653 3527.415 L-13101.937 3555.200 L-13092.304 3583.773 L-13084.805 3612.979 L-13079.481 3642.659 L-13076.362 3672.651 L-13075.465 3702.791 L-13076.794 3732.916 L-13080.342 3762.860 L-13086.090 3792.460 L-13094.007 3821.556 L-13104.049 3849.988 L-13116.161 3877.602 L-13130.278 3904.247 L-13146.323 3929.777 L-13164.208 3954.055 L-13183.835 3976.946 L-13205.098 3998.326 L-13227.880 4018.080 L-13252.058 4036.098 L-13277.500 4052.283 L-13304.066 4066.547 L-13331.613 4078.812 L-13359.989 4089.010 L-13389.041 4097.087 L-13418.609 4102.999 L-13448.533 4106.712 L-13478.650 4108.207 L-13508.795 4107.476 L-13538.803 4104.523 L-13568.512 4099.363 L-13597.759 4092.026 L-13626.385 4082.550 L-13654.234 4070.988 L-13681.153 4057.402 L-13706.997 4041.868 L-13731.625 4024.468 L-13754.901 4005.299 L-13776.699 3984.465 L-13796.900 3962.078 L-13815.395 3938.263 L-13832.082 3913.147 L-13846.870 3886.869 L-13859.679 3859.571 L-13870.439 3831.403 L-13879.090 3802.517 L-13885.587 3773.072 L-13889.894 3743.227 L-13891.986 3713.146 L-13891.853 3682.993 L-13889.496 3652.932 L-13884.927 3623.127 L-13878.171 3593.740 L-13869.265 3564.931 L-13858.258 3536.859 L-13845.209 3509.675 L-13830.190 3483.528 L-13813.283 3458.560 L-13794.579 3434.908 L-13772.592 3411.103 Z M-13749.271 2277.723 L-13749.271 677.900 L-13748.158 647.767 L-13744.824 617.799 L-13739.289 588.158 L-13731.581 559.006 L-13721.743 530.502 L-13709.828 502.803 L-13695.902 476.057 L-13680.041 450.413 L-13662.331 426.008 L-13642.868 402.977 L-13621.759 381.445 L-13599.118 361.529 L-13575.070 343.338 L-13549.745 326.970 L-13523.281 312.517 L-13495.823 300.055 L-13467.521 289.653 L-13438.528 281.369 L-13409.002 275.246 L-13379.106 271.318 L-13349.001 269.607 L-13340.898 269.527 L-558.798 269.527 L-528.665 270.640 L-498.696 273.974 L-469.055 279.509 L-439.904 287.217 L-411.400 297.055 L-383.700 308.970 L-356.955 322.896 L-331.310 338.757 L-306.906 356.467 L-283.874 375.930 L-262.342 397.039 L-242.426 419.680 L-224.235 443.728 L-207.868 469.053 L-193.414 495.517 L-180.953 522.975 L-170.551 551.277 L-162.266 580.270 L-156.143 609.796 L-152.216 639.692 L-150.505 669.798 L-150.424 677.900 L-150.424 2277.723 L-151.537 2307.856 L-154.871 2337.824 L-160.407 2367.466 L-168.115 2396.617 L-177.953 2425.121 L-189.867 2452.821 L-203.793 2479.566 L-219.654 2505.211 L-237.365 2529.615 L-256.828 2552.646 L-277.937 2574.179 L-300.577 2594.095 L-324.626 2612.286 L-349.951 2628.653 L-376.414 2643.106 L-403.872 2655.568 L-432.175 2665.970 L-461.168 2674.255 L-490.693 2680.377 L-517.961 2684.050 L-565.281 2689.925 L-612.275 2698.003 L-658.841 2708.266 L-704.876 2720.693 L-750.282 2735.256 L-794.958 2751.923 L-838.806 2770.657 L-881.733 2791.419 L-923.643 2814.163 L-964.445 2838.838 L-1004.050 2865.392 L-1042.373 2893.766 L-1079.329 2923.899 L-1114.838 2955.724 L-1148.821 2989.173 L-1181.206 3024.172 L-1211.922 3060.645 L-1240.901 3098.512 L-1268.080 3137.691 L-1293.400 3178.097 L-1316.806 3219.640 L-1338.246 3262.232 L-1357.675 3305.778 L-1375.048 3350.183 L-1390.330 3395.352 L-1403.486 3441.184 L-1414.487 3487.581 L-1423.310 3534.441 L-1429.936 3581.662 L-1434.349 3629.141 L-1436.541 3676.774 L-1436.505 3724.458 L-1434.244 3772.087 L-1429.761 3819.559 L-1423.066 3866.771 L-1414.175 3913.618 L-1403.105 3959.999 L-1389.882 4005.812 L-1374.534 4050.958 L-1357.095 4095.338 L-1337.603 4138.855 L-1316.100 4181.415 L-1292.633 4222.924 L-1267.253 4263.292 L-1240.017 4302.432 L-1210.982 4340.256 L-1180.213 4376.684 L-1147.777 4411.635 L-1113.744 4445.034 L-1078.189 4476.807 L-1041.189 4506.886 L-1002.825 4535.204 L-963.180 4561.699 L-922.342 4586.315 L-880.398 4608.997 L-837.442 4629.696 L-793.565 4648.366 L-748.865 4664.967 L-703.439 4679.463 L-657.385 4691.822 L-610.804 4702.018 L-563.798 4710.027 L-516.469 4715.832 L-468.921 4719.421 L-421.257 4720.787 L-373.581 4719.925 L-325.998 4716.838 L-278.611 4711.532 L-231.523 4704.020 L-184.837 4694.317 L-138.655 4682.445 L-93.078 4668.429 L-48.205 4652.301 L-4.134 4634.095 L39.039 4613.851 L81.219 4591.613 L122.316 4567.430 L162.238 4541.354 L200.899 4513.443 L238.214 4483.757 L274.103 4452.361 L308.487 4419.324 L341.290 4384.717 L372.442 4348.616 L401.874 4311.100 L429.522 4272.250 L455.327 4232.152 L479.231 4190.893 L501.182 4148.563 L521.133 4105.254 L539.039 4061.060 L554.863 4016.079 L568.569 3970.408 L580.128 3924.146 L589.514 3877.396 L596.706 3830.258 L599.950 3801.960 L604.071 3772.089 L610.384 3742.604 L618.857 3713.665 L629.441 3685.431 L642.080 3658.054 L656.705 3631.684 L673.235 3606.466 L691.582 3582.535 L711.644 3560.024 L733.312 3539.055 L756.469 3519.741 L780.987 3502.189 L806.734 3486.494 L833.569 3472.742 L861.345 3461.007 L889.912 3451.353 L919.113 3443.834 L948.789 3438.490 L978.779 3435.350 L1006.277 3434.424 L2606.099 3434.424 L2636.232 3435.537 L2666.200 3438.871 L2695.842 3444.406 L2724.993 3452.114 L2753.497 3461.952 L2781.197 3473.867 L2807.942 3487.792 L2833.587 3503.654 L2857.991 3521.364 L2881.022 3540.827 L2902.555 3561.936 L2922.471 3584.576 L2940.662 3608.625 L2957.029 3633.950 L2971.482 3660.414 L2983.944 3687.872 L2994.346 3716.174 L3002.631 3745.167 L3008.754 3774.693 L3012.681 3804.589 L3014.392 3834.694 L3014.473 3842.797 L3014.473 16624.897 L3013.359 16655.030 L3010.026 16684.998 L3004.490 16714.640 L2996.782 16743.791 L2986.944 16772.295 L2975.030 16799.995 L2961.104 16826.740 L2945.242 16852.385 L2927.532 16876.789 L2908.069 16899.820 L2886.960 16921.353 L2864.320 16941.269 L2840.271 16959.460 L2814.946 16975.827 L2788.483 16990.281 L2761.025 17002.742 L2732.722 17013.144 L2703.729 17021.429 L2674.203 17027.552 L2644.307 17031.479 L2614.202 17033.190 L2606.099 17033.271 L1006.277 17033.271 L976.144 17032.157 L946.175 17028.824 L916.534 17023.288 L887.382 17015.580 L858.878 17005.742 L831.179 16993.828 L804.433 16979.902 L778.789 16964.041 L754.384 16946.330 L731.353 16926.867 L709.821 16905.758 L689.905 16883.118 L671.714 16859.069 L655.346 16833.744 L640.893 16807.281 L628.431 16779.823 L618.029 16751.520 L609.745 16722.527 L603.622 16693.002 L599.950 16665.734 L594.075 16618.414 L585.997 16571.420 L575.733 16524.854 L563.306 16478.819 L548.744 16433.413 L532.077 16388.737 L513.342 16344.888 L492.580 16301.962 L469.837 16260.052 L445.161 16219.250 L418.607 16179.645 L390.233 16141.322 L360.100 16104.366 L328.275 16068.857 L294.826 16034.874 L259.827 16002.489 L223.355 15971.773 L185.487 15942.794 L146.308 15915.615 L105.903 15890.295 L64.359 15866.889 L21.768 15845.449 L-21.778 15826.020 L-66.184 15808.647 L-111.352 15793.365 L-157.185 15780.209 L-203.582 15769.208 L-250.442 15760.384 L-297.663 15753.759 L-345.142 15749.346 L-392.775 15747.154 L-440.458 15747.190 L-488.088 15749.451 L-535.560 15753.934 L-582.771 15760.628 L-629.618 15769.520 L-675.999 15780.590 L-721.813 15793.813 L-766.958 15809.161 L-811.338 15826.600 L-854.856 15846.092 L-897.416 15867.595 L-938.925 15891.062 L-979.293 15916.441 L-1018.432 15943.678 L-1056.257 15972.713 L-1092.685 16003.482 L-1127.636 16035.918 L-1161.035 16069.951 L-1192.808 16105.506 L-1222.887 16142.506 L-1251.204 16180.870 L-1277.700 16220.515 L-1302.316 16261.353 L-1324.998 16303.297 L-1345.696 16346.253 L-1364.367 16390.130 L-1380.968 16434.830 L-1395.464 16480.256 L-1407.823 16526.310 L-1418.018 16572.891 L-1426.028 16619.897 L-1431.833 16667.226 L-1435.422 16714.774 L-1436.787 16762.438 L-1435.926 16810.114 L-1432.839 16857.697 L-1427.533 16905.084 L-1420.021 16952.172 L-1410.318 16998.858 L-1398.446 17045.040 L-1384.430 17090.617 L-1368.302 17135.490 L-1350.096 17179.561 L-1329.852 17222.734 L-1307.614 17264.914 L-1283.431 17306.010 L-1257.355 17345.932 L-1229.444 17384.594 L-1199.758 17421.909 L-1168.362 17457.798 L-1135.324 17492.182 L-1100.718 17524.985 L-1064.617 17556.137 L-1027.100 17585.569 L-988.251 17613.217 L-948.153 17639.022 L-906.894 17662.925 L-864.564 17684.877 L-821.254 17704.827 L-777.061 17722.734 L-732.080 17738.558 L-686.409 17752.264 L-640.147 17763.823 L-593.397 17773.208 L-546.259 17780.401 L-517.961 17783.645 L-488.090 17787.766 L-458.605 17794.079 L-429.666 17802.552 L-401.431 17813.136 L-374.054 17825.775 L-347.685 17840.400 L-322.466 17856.930 L-298.536 17875.277 L-276.025 17895.339 L-255.056 17917.007 L-235.742 17940.164 L-218.190 17964.682 L-202.495 17990.429 L-188.742 18017.264 L-177.007 18045.040 L-167.354 18073.607 L-159.835 18102.808 L-154.491 18132.484 L-151.351 18162.474 L-150.424 18189.971 L-150.424 19789.794 L-151.537 19819.927 L-154.871 19849.895 L-160.407 19879.537 L-168.115 19908.688 L-177.953 19937.192 L-189.867 19964.892 L-203.793 19991.637 L-219.654 20017.282 L-237.365 20041.686 L-256.828 20064.717 L-277.937 20086.250 L-300.577 20106.166 L-324.626 20124.357 L-349.951 20140.724 L-376.414 20155.177 L-403.872 20167.639 L-432.175 20178.041 L-461.168 20186.326 L-490.693 20192.448 L-520.590 20196.376 L-550.695 20198.087 L-558.798 20198.168 L-13340.898 20198.168 L-13371.031 20197.054 L-13400.999 20193.721 L-13430.640 20188.185 L-13459.792 20180.477 L-13488.296 20170.639 L-13515.995 20158.725 L-13542.741 20144.799 L-13568.386 20128.937 L-13592.790 20111.227 L-13615.821 20091.764 L-13637.354 20070.655 L-13657.269 20048.015 L-13675.460 20023.966 L-13691.828 19998.641 L-13706.281 19972.178 L-13718.743 19944.720 L-13729.145 19916.417 L-13737.430 19887.424 L-13743.552 19857.898 L-13747.480 19828.002 L-13749.191 19797.897 L-13749.271 19789.794 L-13749.271 18189.971 L-13748.158 18159.839 L-13744.824 18129.870 L-13739.289 18100.229 L-13731.581 18071.077 L-13721.743 18042.573 L-13709.828 18014.874 L-13695.902 17988.128 L-13680.041 17962.484 L-13662.331 17938.079 L-13642.868 17915.048 L-13621.759 17893.516 L-13599.118 17873.600 L-13575.070 17855.409 L-13549.745 17839.041 L-13523.281 17824.588 L-13495.823 17812.126 L-13467.521 17801.724 L-13438.528 17793.440 L-13409.002 17787.317 L-13381.735 17783.645 L-13334.415 17777.770 L-13287.421 17769.692 L-13240.855 17759.428 L-13194.819 17747.001 L-13149.414 17732.439 L-13104.738 17715.772 L-13060.889 17697.037 L-13017.963 17676.275 L-12976.053 17653.532 L-12935.251 17628.856 L-12895.645 17602.302 L-12857.323 17573.928 L-12820.367 17543.795 L-12784.858 17511.970 L-12750.874 17478.521 L-12718.489 17443.522 L-12687.774 17407.049 L-12658.795 17369.182 L-12631.616 17330.003 L-12606.296 17289.598 L-12582.890 17248.054 L-12561.449 17205.463 L-12542.021 17161.917 L-12524.647 17117.511 L-12509.366 17072.343 L-12496.210 17026.510 L-12485.208 16980.113 L-12476.385 16933.253 L-12469.760 16886.032 L-12465.347 16838.553 L-12463.155 16790.920 L-12463.190 16743.237 L-12465.452 16695.607 L-12469.935 16648.135 L-12476.629 16600.924 L-12485.521 16554.077 L-12496.591 16507.696 L-12509.814 16461.882 L-12525.162 16416.737 L-12542.601 16372.357 L-12562.093 16328.839 L-12583.596 16286.279 L-12607.063 16244.770 L-12632.442 16204.402 L-12659.679 16165.263 L-12688.713 16127.438 L-12719.482 16091.010 L-12751.919 16056.059 L-12785.952 16022.660 L-12821.507 15990.887 L-12858.507 15960.808 L-12896.871 15932.491 L-12936.515 15905.995 L-12977.354 15881.379 L-13019.297 15858.697 L-13062.254 15837.999 L-13106.130 15819.328 L-13150.830 15802.727 L-13196.257 15788.231 L-13242.311 15775.872 L-13288.892 15765.677 L-13335.898 15757.667 L-13383.227 15751.862 L-13430.775 15748.273 L-13478.439 15746.908 L-13526.114 15747.769 L-13573.698 15750.856 L-13621.085 15756.162 L-13668.173 15763.674 L-13714.859 15773.377 L-13761.041 15785.249 L-13806.618 15799.265 L-13851.491 15815.393 L-13895.562 15833.599 L-13938.735 15853.843 L-13980.915 15876.081 L-14022.011 15900.264 L-14061.933 15926.340 L-14100.594 15954.251 L-14137.910 15983.937 L-14173.799 16015.333 L-14208.182 16048.371 L-14240.986 16082.977 L-14272.138 16119.078 L-14301.570 16156.594 L-14329.218 16195.444 L-14355.022 16235.542 L-14378.926 16276.801 L-14400.877 16319.131 L-14420.828 16362.441 L-14438.735 16406.634 L-14454.558 16451.615 L-14468.265 16497.286 L-14479.823 16543.548 L-14489.209 16590.298 L-14496.402 16637.436 L-14499.645 16665.734 L-14503.766 16695.605 L-14510.080 16725.090 L-14518.552 16754.029 L-14529.137 16782.264 L-14541.776 16809.641 L-14556.401 16836.010 L-14572.931 16861.229 L-14591.277 16885.159 L-14611.339 16907.670 L-14633.008 16928.639 L-14656.164 16947.953 L-14680.683 16965.505 L-14706.430 16981.200 L-14733.265 16994.953 L-14761.041 17006.688 L-14789.608 17016.341 L-14818.808 17023.860 L-14848.485 17029.204 L-14878.474 17032.344 L-14905.972 17033.271 L-16505.794 17033.271 L-16535.928 17032.157 L-16565.896 17028.824 L-16595.537 17023.288 L-16624.689 17015.580 L-16653.192 17005.742 L-16680.892 16993.828 L-16707.638 16979.902 L-16733.282 16964.041 L-16757.687 16946.330 L-16780.718 16926.867 L-16802.250 16905.758 L-16822.166 16883.118 L-16840.357 16859.069 L-16856.725 16833.744 L-16871.178 16807.281 L-16883.640 16779.823 L-16894.042 16751.520 L-16902.326 16722.527 L-16908.449 16693.002 L-16912.377 16663.105 L-16914.088 16633.000 L-16914.168 16624.897 L-16914.168 3842.797 L-16913.055 3812.664 L-16909.721 3782.696 L-16904.186 3753.055 L-16896.478 3723.903 L-16886.640 3695.399 L-16874.725 3667.700 L-16860.799 3640.954 L-16844.938 3615.309 L-16827.228 3590.905 L-16807.765 3567.874 L-16786.656 3546.341 L-16764.015 3526.425 L-16739.967 3508.234 L-16714.642 3491.867 L-16688.178 3477.414 L-16660.720 3464.952 L-16632.418 3454.550 L-16603.425 3446.265 L-16573.899 3440.143 L-16544.003 3436.215 L-16513.897 3434.504 L-16505.794 3434.424 L-14905.972 3434.424 L-14875.839 3435.537 L-14845.871 3438.871 L-14816.229 3444.406 L-14787.078 3452.114 L-14758.574 3461.952 L-14730.874 3473.867 L-14704.129 3487.792 L-14678.484 3503.654 L-14654.080 3521.364 L-14631.049 3540.827 L-14609.516 3561.936 L-14589.600 3584.576 L-14571.409 3608.625 L-14555.042 3633.950 L-14540.589 3660.414 L-14528.127 3687.872 L-14517.725 3716.174 L-14509.440 3745.167 L-14503.317 3774.693 L-14499.645 3801.960 L-14493.770 3849.280 L-14485.692 3896.274 L-14475.429 3942.840 L-14463.002 3988.876 L-14448.439 4034.281 L-14431.772 4078.957 L-14413.038 4122.806 L-14392.276 4165.732 L-14369.532 4207.642 L-14344.857 4248.444 L-14318.303 4288.050 L-14289.929 4326.372 L-14259.796 4363.328 L-14227.971 4398.837 L-14194.522 4432.820 L-14159.523 4465.206 L-14123.050 4495.921 L-14085.183 4524.900 L-14046.004 4552.079 L-14005.598 4577.399 L-13964.055 4600.805 L-13921.463 4622.245 L-13877.917 4641.674 L-13833.512 4659.048 L-13788.343 4674.329 L-13742.511 4687.485 L-13696.114 4698.487 L-13649.254 4707.310 L-13602.033 4713.935 L-13554.554 4718.348 L-13506.921 4720.540 L-13459.237 4720.505 L-13411.608 4718.243 L-13364.136 4713.760 L-13316.924 4707.066 L-13270.077 4698.174 L-13223.696 4687.104 L-13177.883 4673.881 L-13132.737 4658.533 L-13088.357 4641.094 L-13044.840 4621.602 L-13002.280 4600.099 L-12960.771 4576.632 L-12920.402 4551.253 L-12881.263 4524.016 L-12843.439 4494.982 L-12807.011 4464.213 L-12772.059 4431.776 L-12738.661 4397.743 L-12706.888 4362.188 L-12676.809 4325.188 L-12648.491 4286.824 L-12621.996 4247.179 L-12597.380 4206.341 L-12574.698 4164.398 L-12553.999 4121.441 L-12535.329 4077.565 L-12518.728 4032.865 L-12504.232 3987.438 L-12491.873 3941.384 L-12481.677 3894.803 L-12473.668 3847.797 L-12467.863 3800.468 L-12464.273 3752.920 L-12462.908 3705.256 L-12463.770 3657.581 L-12466.857 3609.997 L-12472.163 3562.610 L-12479.675 3515.522 L-12489.378 3468.836 L-12501.250 3422.654 L-12515.265 3377.077 L-12531.394 3332.204 L-12549.600 3288.133 L-12569.844 3244.960 L-12592.082 3202.780 L-12616.265 3161.684 L-12642.341 3121.762 L-12670.252 3083.101 L-12699.938 3045.785 L-12731.334 3009.896 L-12764.371 2975.513 L-12798.978 2942.709 L-12835.079 2911.557 L-12872.595 2882.125 L-12911.445 2854.477 L-12951.543 2828.673 L-12992.802 2804.769 L-13035.132 2782.818 L-13078.441 2762.867 L-13122.635 2744.960 L-13167.616 2729.136 L-13213.287 2715.430 L-13259.549 2703.872 L-13306.299 2694.486 L-13353.437 2687.293 L-13381.735 2684.050 L-13411.606 2679.929 L-13441.091 2673.615 L-13470.030 2665.142 L-13498.264 2654.558 L-13525.641 2641.919 L-13552.011 2627.294 L-13577.229 2610.764 L-13601.160 2592.418 L-13623.671 2572.356 L-13644.640 2550.687 L-13663.954 2527.531 L-13681.506 2503.012 L-13697.201 2477.265 L-13710.953 2450.430 L-13722.688 2422.654 L-13732.342 2394.087 L-13739.861 2364.886 L-13745.205 2335.210 L-13748.345 2305.221 L-13749.271 2277.723 Z M-127.103 3411.103 L-106.583 3433.197 L-87.750 3456.745 L-70.705 3481.619 L-55.541 3507.683 L-42.343 3534.794 L-31.181 3562.806 L-22.116 3591.565 L-15.198 3620.914 L-10.465 3650.694 L-7.941 3680.742 L-7.642 3710.894 L-9.569 3740.985 L-13.711 3770.853 L-20.045 3800.334 L-28.537 3829.267 L-39.141 3857.495 L-51.799 3884.862 L-66.442 3911.222 L-82.990 3936.429 L-101.353 3960.347 L-121.431 3982.844 L-143.113 4003.798 L-166.283 4023.096 L-190.814 4040.631 L-216.572 4056.308 L-243.416 4070.042 L-271.201 4081.757 L-299.774 4091.391 L-328.980 4098.890 L-358.660 4104.214 L-388.652 4107.332 L-418.792 4108.230 L-448.916 4106.901 L-478.860 4103.353 L-508.461 4097.605 L-537.557 4089.688 L-565.989 4079.646 L-593.603 4067.534 L-620.248 4053.417 L-645.778 4037.372 L-670.055 4019.487 L-692.947 3999.860 L-714.327 3978.597 L-734.080 3955.815 L-752.099 3931.637 L-768.284 3906.195 L-782.548 3879.629 L-794.813 3852.082 L-805.011 3823.706 L-813.088 3794.654 L-819.000 3765.086 L-822.713 3735.162 L-824.208 3705.045 L-823.477 3674.900 L-820.524 3644.892 L-815.364 3615.183 L-808.027 3585.936 L-798.551 3557.310 L-786.989 3529.461 L-773.403 3502.542 L-757.868 3476.698 L-740.469 3452.070 L-721.300 3428.794 L-700.465 3406.996 L-678.079 3386.795 L-654.264 3368.300 L-629.148 3351.613 L-602.870 3336.825 L-575.572 3324.016 L-547.404 3313.256 L-518.518 3304.605 L-489.073 3298.108 L-459.228 3293.801 L-429.147 3291.709 L-398.994 3291.841 L-368.933 3294.199 L-339.127 3298.768 L-309.740 3305.524 L-280.932 3314.430 L-252.859 3325.437 L-225.675 3338.486 L-199.528 3353.504 L-174.561 3370.412 L-150.909 3389.116 L-127.103 3411.103 Z"/>

<text class="plbl" x="8.60" y="12.25" text-anchor="start">panel sits here</text>
<path class="tool" d="M-6949.848 6150.109 L-8072.876 6150.109 L-8072.876 8191.978 L-6949.848 8191.978 L-6882.419 8193.092 L-6815.064 8196.431 L-6747.857 8201.994 L-6680.869 8209.772 L-6614.175 8219.759 L-6547.847 8231.942 L-6481.957 8246.309 L-6416.578 8262.844 L-6351.781 8281.529 L-6287.636 8302.344 L-6224.213 8325.266 L-6161.582 8350.269 L-6099.811 8377.327 L-6038.967 8406.411 L-5979.116 8437.487 L-5920.325 8470.523 L-5862.656 8505.483 L-5806.174 8542.328 L-5750.938 8581.018 L-5697.011 8621.511 L-5644.450 8663.762 L-5593.313 8707.727 L-5543.656 8753.356 L-5507.759 8788.300 L-5506.028 8790.028 L-2866.110 6150.109 L-6949.848 6150.109 Z"/>
<path class="oml" d="M-3.649 430.000 L-1.245 428.208 L1.167 426.417 L3.586 424.625 L6.013 422.833 L8.447 421.042 L10.889 419.250 L13.338 417.458 L15.795 415.667 L18.260 413.875 L20.732 412.083 L23.212 410.292 L25.700 408.500 L28.196 406.708 L30.700 404.917 L33.212 403.125 L35.732 401.333 L38.260 399.542 L40.797 397.750 L43.341 395.958 L45.894 394.167 L48.455 392.375 L51.025 390.583 L53.603 388.792 L56.189 387.000 L58.784 385.208 L61.387 383.417 L64.000 381.625 L66.620 379.833 L69.250 378.042 L71.889 376.250 L74.536 374.458 L77.192 372.667 L79.858 370.875 L82.532 369.083 L85.216 367.292 L87.909 365.500 L90.611 363.708 L93.322 361.917 L96.043 360.125 L98.774 358.333 L101.514 356.542 L104.263 354.750 L107.022 352.958 L109.791 351.167 L112.570 349.375 L115.359 347.583 L118.158 345.792 L120.967 344.000 L123.786 342.208 L126.615 340.417 L129.455 338.625 L132.304 336.833 L135.165 335.042 L138.036 333.250 L140.917 331.458 L143.810 329.667 L146.713 327.875 L149.627 326.083 L152.552 324.292 L155.488 322.500 L158.435 320.708 L161.394 318.917 L164.364 317.125 L167.345 315.333 L170.338 313.542 L173.342 311.750 L176.358 309.958 L179.387 308.167 L182.427 306.375 L185.479 304.583 L188.543 302.792 L191.620 301.000 L194.709 299.208 L197.810 297.417 L200.924 295.625 L204.051 293.833 L207.191 292.042 L210.344 290.250 L213.509 288.458 L216.688 286.667 L219.881 284.875 L223.087 283.083 L226.306 281.292 L229.539 279.500 L232.786 277.708 L236.047 275.917 L239.322 274.125 L242.612 272.333 L245.916 270.542 L249.234 268.750 L252.568 266.958 L255.916 265.167 L259.279 263.375 L262.657 261.583 L266.051 259.792 L269.460 258.000 L272.885 256.208 L276.326 254.417 L279.783 252.625 L283.256 250.833 L286.746 249.042 L290.252 247.250 L293.775 245.458 L297.315 243.667 L300.872 241.875 L304.446 240.083 L308.038 238.292 L311.648 236.500 L315.276 234.708 L318.922 232.917 L322.586 231.125 L326.269 229.333 L329.971 227.542 L333.693 225.750 L337.433 223.958 L341.193 222.167 L344.973 220.375 L348.773 218.583 L352.594 216.792 L356.435 215.000 L360.297 213.208 L364.181 211.417 L368.086 209.625 L372.013 207.833 L375.962 206.042 L379.933 204.250 L383.927 202.458 L387.944 200.667 L391.985 198.875 L396.050 197.083 L400.138 195.292 L404.251 193.500 L408.389 191.708 L412.552 189.917 L416.741 188.125 L420.956 186.333 L425.198 184.542 L429.466 182.750 L433.762 180.958 L438.085 179.167 L442.437 177.375 L446.817 175.583 L451.227 173.792 L455.666 172.000 L460.136 170.208 L464.636 168.417 L469.168 166.625 L473.732 164.833 L478.328 163.042 L482.957 161.250 L487.620 159.458 L492.318 157.667 L497.050 155.875 L501.818 154.083 L506.623 152.292 L511.465 150.500 L516.345 148.708 L521.264 146.917 L526.223 145.125 L531.222 143.333 L536.262 141.542 L541.345 139.750 L546.471 137.958 L551.641 136.167 L556.857 134.375 L562.118 132.583 L567.428 130.792 L572.786 129.000 L578.194 127.208 L583.653 125.417 L589.165 123.625 L594.731 121.833 L600.352 120.042 L606.030 118.250 L611.767 116.458 L617.563 114.667 L623.422 112.875 L629.344 111.083 L635.333 109.292 L641.389 107.500 L647.515 105.708 L653.713 103.917 L659.986 102.125 L666.336 100.333 L672.766 98.542 L679.278 96.750 L685.877 94.958 L692.564 93.167 L699.344 91.375 L706.220 89.583 L713.196 87.792 L720.277 86.000 L727.466 84.208 L734.769 82.417 L742.191 80.625 L749.738 78.833 L757.415 77.042 L765.229 75.250 L773.188 73.458 L781.300 71.667 L789.573 69.875 L798.017 68.083 L806.641 66.292 L815.459 64.500 L824.483 62.708 L833.727 60.917 L843.207 59.125 L852.943 57.333 L862.955 55.542 L873.268 53.750 L883.908 51.958 L894.909 50.167 L906.309 48.375 L918.153 46.583 L930.497 44.792 L943.407 43.000 L956.968 41.208 L971.288 39.417 L986.507 37.625 L1002.816 35.833 L1020.486 34.042 L1039.923 32.250 L1061.785 30.458 L1087.289 28.667 L1119.224 26.875 L1168.925 25.083"/>
<line class="nominal" x1="0.00" y1="24.50" x2="430.00" y2="24.50"/>
<line class="rule" x1="94.60" y1="430.00" x2="94.60" y2="0.00"/>
<line class="rule2" x1="94.60" y1="430.00" x2="94.60" y2="0.00"/>
<line class="toolrule" x1="94.60" y1="430.00" x2="94.60" y2="0.00"/>
<text class="lbl" x="91.60" y="425.00" text-anchor="end">flat_x</text>
<text class="lbl" x="98.60" y="425.00" text-anchor="start">rect_edge</text>
<line class="toolrule" x1="104.81" y1="430.00" x2="104.81" y2="0.00"/>
<g class="dim"><line x1="94.60" y1="146.15" x2="104.81" y2="146.15"/><line x1="94.60" y1="142.15" x2="94.60" y2="150.15"/><line x1="104.81" y1="142.15" x2="104.81" y2="150.15"/><text x="99.70" y="137.15" text-anchor="middle">corner_tolerance 0.050</text></g>
<g class="dim faint"><line x1="94.60" y1="6.86" x2="94.60" y2="6.86"/><line x1="94.60" y1="2.86" x2="94.60" y2="10.86"/><line x1="94.60" y1="2.86" x2="94.60" y2="10.86"/><text x="94.60" y="-2.14" text-anchor="middle">panel_tolerance 0.000</text></g>
<g class="dim"><line x1="94.60" y1="15.19" x2="94.60" y2="15.19"/><line x1="94.60" y1="11.19" x2="94.60" y2="19.19"/><line x1="94.60" y1="11.19" x2="94.60" y2="19.19"/><text x="94.60" y="6.19" text-anchor="middle">step 0.0000</text></g>
<g class="dim"><line x1="245.53" y1="24.50" x2="245.53" y2="24.50"/><line x1="241.53" y1="24.50" x2="249.53" y2="24.50"/><line x1="241.53" y1="24.50" x2="249.53" y2="24.50"/><text x="253.53" y="28.50">eps 0.010</text></g>
<text class="lbl" x="429.18" y="19.50" text-anchor="end">flange face</text></g></svg>
